<?xml version="1.0" standalone="no"?>
<!DOCTYPE svg PUBLIC "-//W3C//DTD SVG 20010904//EN"
 "http://www.w3.org/TR/2001/REC-SVG-20010904/DTD/svg10.dtd">
<svg version="1.0" xmlns="http://www.w3.org/2000/svg"
 width="551.000000pt" height="493.000000pt" viewBox="0 0 551.000000 493.000000"
 preserveAspectRatio="xMidYMid meet">

<g transform="translate(0.000000,493.000000) scale(0.100000,-0.100000)"
fill="#000000" stroke="none">
<path d="M2710 4716 c-7 -9 -10 -26 -7 -38 4 -12 1 -28 -5 -35 -19 -24 -1 -24
45 -2 59 29 69 50 21 42 -20 -3 -34 -1 -34 5 0 13 29 24 42 16 6 -4 9 -1 6 7
-6 20 -52 23 -68 5z"/>
<path d="M2830 4714 c-11 -12 -10 -18 3 -31 13 -13 19 -14 31 -3 13 10 19 10
32 0 12 -11 18 -10 31 3 13 13 14 19 4 31 -10 12 -18 13 -33 5 -14 -8 -23 -8
-31 0 -15 15 -22 14 -37 -5z"/>
<path d="M1801 4620 l-34 -29 22 -81 c13 -45 20 -88 17 -95 -3 -8 -20 -17 -39
-20 -36 -7 -50 -2 -121 43 l-39 24 51 30 c48 28 52 32 52 68 0 21 -3 41 -8 44
-4 2 -47 -19 -95 -47 -76 -46 -87 -55 -87 -80 0 -42 14 -61 60 -82 22 -10 39
-23 37 -28 -1 -5 -40 -22 -85 -36 -89 -29 -129 -54 -152 -94 -13 -24 -13 -28
2 -43 15 -15 22 -15 63 -4 25 7 48 10 51 7 9 -8 -62 -37 -123 -50 -46 -10 -54
-9 -72 7 -11 10 -23 31 -26 48 -5 20 -12 28 -23 26 -13 -3 -17 -15 -17 -56 1
-99 62 -139 166 -109 108 32 163 90 137 145 -14 28 -34 32 -93 18 -29 -7 -29
-7 -10 9 16 14 33 16 88 11 80 -7 150 16 162 54 5 15 12 19 23 15 65 -26 132
-22 150 11 7 12 14 12 41 3 28 -10 36 -9 61 10 21 15 35 19 51 13 49 -19 99
14 99 66 0 31 -35 98 -55 106 -51 19 -102 -8 -107 -57 -3 -28 -6 -32 -33 -32
l-30 0 -21 103 c-12 57 -23 105 -25 107 -2 1 -19 -10 -38 -25z m269 -187 c0
-19 -30 -13 -43 8 -6 9 -7 25 -3 35 7 18 9 18 27 -5 10 -13 19 -30 19 -38z"/>
<path d="M2862 4610 c-27 -36 -27 -42 -2 -65 11 -10 17 -22 14 -27 -8 -12 -97
-4 -101 9 -2 6 -10 18 -17 28 -12 17 -14 17 -27 -11 -11 -23 -22 -30 -52 -32
-31 -3 -39 1 -49 22 -14 33 -25 33 -40 1 -15 -34 -76 -38 -111 -7 -20 18 -22
17 -41 -28 -13 -32 -13 -35 10 -53 45 -35 26 -60 -56 -72 -25 -4 -57 -2 -72 4
-23 9 -28 17 -28 45 0 64 -32 53 -44 -16 -9 -49 14 -105 49 -118 91 -35 207
10 221 85 4 25 10 32 24 28 10 -3 31 2 47 10 19 10 34 12 44 6 22 -14 82 -11
106 6 18 13 22 13 33 0 20 -24 94 -19 125 8 32 27 44 96 26 150 -18 55 -34 62
-59 27z"/>
<path d="M2326 4571 c-18 -20 -18 -21 8 -32 33 -16 57 1 40 28 -16 25 -28 26
-48 4z"/>
<path d="M3437 4562 c-31 -32 -33 -44 -12 -62 28 -23 17 -33 -27 -26 -25 4
-54 18 -69 32 l-27 25 -22 -36 -23 -37 23 -29 c12 -17 19 -36 17 -43 -3 -7
-37 -29 -76 -50 -39 -20 -71 -41 -71 -45 0 -9 59 -21 107 -21 36 0 68 32 78
79 6 27 8 28 49 24 35 -4 47 -1 71 20 26 22 30 32 33 93 2 47 -1 75 -10 87
-13 17 -15 16 -41 -11z"/>
<path d="M3023 4554 c-11 -18 -18 -47 -18 -83 l0 -56 38 -9 c20 -5 37 -12 37
-16 0 -3 -32 -23 -70 -44 -39 -20 -68 -42 -65 -47 4 -5 38 -9 76 -9 l70 0 20
45 c49 110 29 237 -38 243 -25 3 -35 -2 -50 -24z m57 -59 c10 -13 9 -15 -8
-15 -22 0 -36 13 -25 24 10 10 20 7 33 -9z"/>
<path d="M3877 4474 c-28 -24 -28 -26 -13 -49 9 -13 16 -27 16 -31 0 -16 -76
8 -101 32 l-29 28 -25 -24 c-30 -28 -31 -38 -8 -79 22 -38 17 -44 -71 -79 -37
-15 -68 -32 -67 -37 0 -6 27 -16 61 -24 59 -13 62 -12 85 9 13 12 29 34 35 49
10 26 14 28 60 23 42 -4 52 -1 74 21 32 32 51 101 40 146 -11 44 -22 46 -57
15z"/>
<path d="M4029 4389 c-29 -29 -52 -87 -44 -116 3 -15 17 -28 35 -35 17 -5 30
-14 30 -18 0 -4 -30 -16 -67 -25 -107 -28 -108 -41 -8 -65 61 -15 73 -9 107
45 15 26 24 30 60 31 27 0 47 -5 54 -14 7 -9 22 -13 41 -10 22 3 34 -1 42 -14
26 -41 87 -10 117 59 14 33 19 73 8 73 -18 0 -44 -24 -44 -40 0 -13 -7 -20
-20 -20 -15 0 -20 7 -20 24 0 33 -17 42 -40 21 -25 -23 -50 -12 -50 20 0 28
-17 33 -34 9 -8 -11 -20 -13 -39 -9 -22 6 -27 13 -27 36 0 33 -31 69 -60 69
-11 0 -29 -9 -41 -21z m41 -64 c10 -13 9 -15 -8 -15 -22 0 -36 13 -25 24 10
10 20 7 33 -9z"/>
<path d="M2630 4359 c0 -6 -11 -8 -28 -4 -37 8 -61 -15 -36 -36 12 -9 20 -10
33 -2 11 7 23 7 33 2 23 -13 45 15 28 36 -15 18 -30 20 -30 4z"/>
<path d="M3381 4331 c-22 -14 -5 -44 20 -38 12 3 30 1 40 -6 23 -14 43 2 33
27 -5 12 -13 16 -30 12 -12 -3 -26 -2 -29 4 -8 12 -16 12 -34 1z"/>
<path d="M3395 4270 c-4 -6 -1 -17 5 -25 9 -11 17 -12 32 -4 15 8 17 13 7 25
-14 16 -35 18 -44 4z"/>
<path d="M3802 4252 c-21 -14 -3 -44 23 -38 14 4 28 0 35 -9 9 -11 17 -12 31
-4 16 8 17 13 7 29 -9 14 -16 16 -29 10 -12 -7 -21 -5 -29 5 -14 17 -20 18
-38 7z"/>
<path d="M3816 4191 c-10 -16 5 -42 23 -39 21 4 21 42 -1 46 -9 2 -19 -1 -22
-7z"/>
<path d="M2070 4148 c-383 -36 -772 -194 -1070 -435 -102 -83 -273 -260 -347
-360 -447 -603 -525 -1400 -202 -2072 305 -637 916 -1063 1619 -1131 77 -8
345 -10 805 -8 754 5 752 5 991 68 663 176 1198 696 1397 1360 61 201 81 345
81 580 -1 219 -12 313 -60 505 -86 340 -274 665 -530 919 -336 334 -769 534
-1244 576 -140 12 -1306 11 -1440 -2z m1772 -783 c-9 -202 -78 -389 -204 -553
-32 -42 -58 -80 -58 -84 0 -5 20 -36 45 -70 25 -34 45 -65 45 -69 0 -3 -28 -9
-62 -13 -35 -3 -94 -14 -133 -22 -44 -11 -125 -17 -220 -19 -340 -4 -584 -99
-828 -320 l-66 -60 102 0 c156 -1 156 -2 19 -128 -64 -59 -146 -128 -182 -153
-146 -102 -347 -181 -525 -208 l-90 -13 40 -11 c63 -19 202 -15 291 8 91 23
283 115 399 190 44 29 118 87 165 130 341 309 727 479 1161 509 180 13 501
-13 473 -38 -5 -5 -35 -18 -67 -31 -32 -12 -56 -24 -54 -26 2 -2 56 1 120 7
128 11 246 1 310 -26 l38 -16 -37 -67 c-101 -182 -259 -395 -393 -527 l-71
-69 -77 23 c-156 45 -261 112 -422 266 l-84 80 26 -51 c68 -134 229 -288 378
-360 43 -22 79 -42 79 -45 0 -3 -39 -35 -87 -71 -664 -501 -1532 -623 -2300
-323 -182 71 -350 162 -409 220 -92 92 -138 228 -116 345 35 188 169 314 362
340 174 24 270 70 385 185 70 69 90 98 148 210 117 228 251 366 452 465 94 46
231 90 281 90 20 0 23 7 33 83 6 45 15 118 19 162 l7 80 31 -80 c17 -44 39
-115 49 -157 l17 -78 53 0 c28 0 99 -12 156 -26 l103 -26 16 23 c136 208 338
345 580 394 107 22 106 23 102 -70z m243 -1894 c40 -24 225 -203 225 -217 0
-31 -163 -156 -309 -238 -109 -61 -465 -226 -488 -226 -15 0 -313 276 -313
290 0 4 83 44 184 90 206 91 334 161 474 256 86 58 99 64 146 64 32 0 62 -7
81 -19z m-870 -483 c59 -81 58 -92 -4 -65 l-49 20 -66 -42 c-55 -36 -78 -45
-135 -51 -45 -5 -80 -15 -99 -29 -18 -12 -46 -21 -69 -21 -50 0 -59 -8 -75
-55 -17 -52 -47 -58 -88 -16 -34 33 -39 74 -14 109 17 25 133 85 233 122 53
20 290 87 313 89 4 1 28 -27 53 -61z"/>
<path d="M3630 2419 c0 -9 -6 -22 -14 -28 -12 -10 -17 -8 -27 10 l-11 22 -19
-24 c-18 -23 -19 -24 -49 -7 -29 16 -30 16 -30 -2 0 -32 36 -60 75 -60 51 0
109 -27 128 -59 24 -41 22 -48 -19 -55 -34 -7 -114 -68 -114 -87 0 -5 25 -39
55 -74 30 -35 64 -83 75 -105 17 -34 25 -40 43 -35 31 9 67 52 67 78 -1 12
-10 47 -21 77 -34 92 -33 90 -11 90 26 0 52 36 52 72 0 15 -12 59 -26 98 -25
67 -27 70 -41 50 -20 -28 -29 -25 -38 13 -6 30 -7 31 -15 10 -9 -22 -30 -32
-30 -15 0 5 -7 17 -15 28 -12 16 -14 16 -15 3z m37 -265 c2 -6 -4 -14 -13 -18
-19 -7 -47 11 -38 26 8 12 46 6 51 -8z"/>
<path d="M3250 2284 c-174 -37 -318 -169 -366 -334 -6 -23 -4 -22 21 8 28 34
28 34 40 12 12 -22 12 -22 24 8 16 39 61 83 61 59 0 -9 31 15 78 61 90 89 159
133 274 173 l83 29 -75 -1 c-41 0 -104 -7 -140 -15z"/>
<path d="M3974 1399 c-10 -17 23 -46 37 -32 7 7 9 19 6 27 -7 18 -33 21 -43 5z"/>
</g>
</svg>
